PathFileType	4	(X/Y/Z)	S:\OneDrive - The University of Tokyo\ìåëÂéˆã∆\ÉoÉCÉÅÉJ\ë™íË\hirabayashi_2\Trimmed\Trimmed_BarR20kg1.trc
DataRate	CameraRate	NumFrames	NumMarkers	Units	OrigDataRate	OrigDataStartFrame	OrigNumFrames
200.00	200.00	       17	12	mm	200.00	157	       313
Frame#	Time	BarR0			BarR50			BarR100			BarR130			BarR180			BarR230			BarL0			BarL50			BarL100			BarL130			BarL180			BarL230			
		X1	Y1	Z1	X2	Y2	Z2	X3	Y3	Z3	X4	Y4	Z4	X5	Y5	Z5	X6	Y6	Z6	X7	Y7	Z7	X8	Y8	Z8	X9	Y9	Z9	X10	Y10	Z10	X11	Y11	Z11	X12	Y12	Z12	

157	0.780	-576.33594	2754.88965	1664.21948	-603.87476	2305.62769	1657.83484	-637.89221	1851.82507	1654.49988	-660.49084	1349.60718	1654.42627	-689.79077	902.99115	1658.45569	-713.76288	455.07504	1664.11646	-1113.49036	2808.13867	1664.67188	-1140.77661	2356.49512	1667.92480	-1171.26038	1906.04370	1668.92004	-1198.99121	1404.30310	1669.27283	-1226.85144	952.63788	1668.41113	-1244.69397	506.45267	1667.65784	
158	0.785	-576.35693	2754.90894	1664.23328	-603.88928	2305.63257	1657.83215	-637.90845	1851.81433	1654.50281	-660.48956	1349.60107	1654.43823	-689.75470	902.99866	1658.47156	-713.79041	455.09525	1664.11829	-1113.47729	2808.13501	1664.64880	-1140.76721	2356.49731	1667.95715	-1171.28015	1906.04944	1668.91602	-1199.00122	1404.29492	1669.27112	-1226.82788	952.64728	1668.41443	-1244.70361	506.47293	1667.65173	
159	0.790	-576.34991	2754.91748	1664.24744	-603.90155	2305.64746	1657.81519	-637.89124	1851.84192	1654.50000	-660.47931	1349.61145	1654.43030	-689.75781	903.01141	1658.46655	-713.76831	455.08340	1664.12219	-1113.47681	2808.14893	1664.65723	-1140.76147	2356.50952	1667.94678	-1171.28162	1906.04529	1668.91760	-1198.99390	1404.30566	1669.28052	-1226.84094	952.63403	1668.40063	-1244.70642	506.44995	1667.65491	
160	0.795	-576.35663	2754.91235	1664.22888	-603.88782	2305.62207	1657.82080	-637.93732	1851.81580	1654.49585	-660.48553	1349.62317	1654.42798	-689.76923	902.98926	1658.46277	-713.78894	455.09167	1664.12402	-1113.54578	2808.18115	1664.65173	-1140.77148	2356.51025	1667.95581	-1171.25024	1906.04358	1668.93262	-1199.01477	1404.29358	1669.25830	-1226.82703	952.64838	1668.40515	-1244.70605	506.45264	1667.64612	
161	0.800	-576.34088	2754.87134	1664.21936	-603.89478	2305.64624	1657.82141	-637.89520	1851.81592	1654.50171	-660.49805	1349.59912	1654.42517	-689.74615	902.98120	1658.47290	-713.77295	455.08325	1664.11584	-1113.49988	2808.15063	1664.67615	-1140.76062	2356.51733	1667.96082	-1171.26648	1906.04785	1668.92566	-1198.98560	1404.30493	1669.26196	-1226.82898	952.63916	1668.40686	-1244.68274	506.45078	1667.65344	
162	0.805	-576.34253	2754.90308	1664.23608	-603.90710	2305.63892	1657.81702	-637.89679	1851.82068	1654.50757	-660.46680	1349.59912	1654.42236	-689.77063	903.00854	1658.47583	-713.76849	455.08447	1664.11670	-1113.48608	2808.16846	1664.64868	-1140.77100	2356.51416	1667.94714	-1171.27637	1906.02661	1668.91223	-1198.99878	1404.31091	1669.26367	-1226.83960	952.62799	1668.41931	-1244.71179	506.45935	1667.66113	
163	0.810	-576.34845	2754.90820	1664.23547	-603.89215	2305.61792	1657.82153	-637.89093	1851.80127	1654.51050	-660.47974	1349.58337	1654.42590	-689.74750	902.99341	1658.47351	-713.76971	455.09796	1664.10876	-1113.47559	2808.16821	1664.67114	-1140.77686	2356.49097	1667.92651	-1171.27075	1906.04175	1668.91138	-1199.00037	1404.31213	1669.24817	-1226.82361	952.65021	1668.41113	-1244.70911	506.45486	1667.65845	
164	0.815	-576.35144	2754.92554	1664.22986	-603.87427	2305.65405	1657.82117	-637.90308	1851.81519	1654.50952	-660.50049	1349.59619	1654.42358	-689.75555	902.98114	1658.44958	-713.78369	455.07742	1664.11560	-1113.49683	2808.14404	1664.66699	-1140.77173	2356.51343	1667.94702	-1171.26563	1906.03809	1668.92542	-1198.99341	1404.29456	1669.26514	-1226.83447	952.64557	1668.41602	-1244.69800	506.45856	1667.64917	
165	0.820	-576.35126	2754.91455	1664.22546	-603.88654	2305.65186	1657.81738	-637.92847	1851.80872	1654.51233	-660.47687	1349.60181	1654.44275	-689.76172	903.00391	1658.46973	-713.76923	455.09430	1664.12476	-1113.48145	2808.16016	1664.66174	-1140.77722	2356.50415	1667.95239	-1171.27844	1906.06079	1668.91797	-1198.99048	1404.27246	1669.26184	-1226.58240	952.67126	1668.38123	-1244.68689	506.43616	1667.64929	
166	0.825	-576.35852	2754.91455	1664.23499	-603.88916	2305.62915	1657.81677	-637.90656	1851.82959	1654.49304	-660.46283	1349.60376	1654.42786	-689.75543	902.96588	1658.47913	-713.76495	455.10492	1664.11353	-1113.47961	2808.16724	1664.65686	-1140.76721	2356.50562	1667.93677	-1171.27930	1906.03772	1668.92993	-1198.99170	1404.29504	1669.25818	-1226.82397	952.64294	1668.42578	-1244.69641	506.44635	1667.65356	
167	0.830	-576.33978	2754.90405	1664.22925	-603.88715	2305.62500	1657.80798	-637.86652	1851.82471	1654.48120	-660.49396	1349.60327	1654.43689	-689.76074	902.99292	1658.47046	-713.77167	455.09396	1664.12732	-1113.50684	2808.17749	1664.66833	-1140.76221	2356.50293	1667.94495	-1171.27295	1906.04480	1668.91602	-1199.00500	1404.29578	1669.26453	-1226.82935	952.63928	1668.41089	-1244.69373	506.44437	1667.64746	
168	0.835	-576.34106	2754.90137	1664.21606	-603.87476	2305.59473	1657.82629	-637.91437	1851.83447	1654.49561	-660.47992	1349.61035	1654.43420	-689.76819	902.98926	1658.47791	-713.78003	455.08838	1664.10742	-1113.48621	2808.17114	1664.66492	-1140.77148	2356.51050	1667.95288	-1171.25977	1906.05200	1668.93921	-1198.99780	1404.28748	1669.28369	-1226.82751	952.64545	1668.41162	-1244.70532	506.46777	1667.64160	
169	0.840	-576.34772	2754.90625	1664.22461	-603.87903	2305.60962	1657.82056	-637.89844	1851.82458	1654.51538	-660.47687	1349.59717	1654.41882	-689.77325	902.99426	1658.45142	-713.76526	455.07065	1664.11694	-1113.51331	2808.13550	1664.66089	-1140.76831	2356.49658	1667.95752	-1171.26526	1906.02222	1668.90747	-1198.98828	1404.29395	1669.26123	-1226.83240	952.62714	1668.42078	-1244.70178	506.43634	1667.65344	
170	0.845	-576.34662	2754.89893	1664.24097	-603.87463	2305.62402	1657.81519	-637.89410	1851.81238	1654.49207	-660.49414	1349.58960	1654.42712	-689.76788	903.01501	1658.46863	-713.76428	455.07285	1664.11499	-1113.48779	2808.15942	1664.65161	-1140.76892	2356.49756	1667.96802	-1171.26477	1906.01050	1668.91235	-1198.99731	1404.29724	1669.26367	-1226.82776	952.63159	1668.41394	-1244.71265	506.47525	1667.65027	
171	0.850	-576.34570	2754.89795	1664.22559	-603.89117	2305.65723	1657.84412	-637.90198	1851.80530	1654.49207	-660.47235	1349.61829	1654.42810	-689.77313	902.97357	1658.45068	-713.76385	455.07562	1664.12219	-1113.48645	2808.15430	1664.67896	-1140.77075	2356.52759	1667.94873	-1171.28564	1906.04114	1668.92163	-1198.98096	1404.27771	1669.25195	-1226.82788	952.64563	1668.41736	-1244.71375	506.47736	1667.65894	
172	0.855	-576.34473	2754.90649	1664.23865	-603.88354	2305.64355	1657.81628	-637.90930	1851.82336	1654.49438	-660.49097	1349.57275	1654.42773	-689.75989	903.00049	1658.46509	-713.78351	455.07205	1664.10291	-1113.51270	2808.12524	1664.65308	-1140.76501	2356.51831	1667.93066	-1171.29004	1906.03381	1668.91882	-1198.99939	1404.26563	1669.25879	-1226.83655	952.63416	1668.41772	-1244.72070	506.45798	1667.65247	
173	0.860	-576.35004	2754.91284	1664.23853	-603.89191	2305.64697	1657.81079	-637.88647	1851.83215	1654.51086	-660.48840	1349.61621	1654.43262	-689.76355	903.01276	1658.47534	-713.76385	455.09659	1664.11584	-1113.46191	2808.13208	1664.64270	-1140.76624	2356.51172	1667.96521	-1171.29065	1906.05103	1668.92847	-1198.99316	1404.29578	1669.26062	-1226.60938	952.66205	1668.39417	-1244.70020	506.46408	1667.64392	
